<svg width="116" height="45" viewBox="0 0 116 45" fill="none" xmlns="http://www.w3.org/2000/svg">
<g filter="url(#filter0_d_278_2505)">
<path d="M8 8C8 6.34315 9.34315 5 11 5H105C106.657 5 108 6.34315 108 8V31C108 32.6569 106.657 34 105 34H11C9.34314 34 8 32.6569 8 31V8Z" fill="#E16A00"/>
</g>
<path d="M30.3777 18.552L26.7417 19.8L30.3777 21.048V23.088L24.2577 20.868V18.732L30.3777 16.512V18.552ZM42.0407 19.608C42.5367 19.792 42.9207 20.06 43.1927 20.412C43.4647 20.764 43.6007 21.188 43.6007 21.684C43.6007 22.42 43.2967 22.992 42.6887 23.4C42.0807 23.8 41.2007 24 40.0487 24H35.3207V15.6H39.8087C40.9287 15.6 41.7727 15.8 42.3407 16.2C42.9167 16.6 43.2047 17.132 43.2047 17.796C43.2047 18.188 43.1047 18.54 42.9047 18.852C42.7127 19.164 42.4247 19.416 42.0407 19.608ZM38.1047 17.58V18.828H39.4247C40.0407 18.828 40.3487 18.62 40.3487 18.204C40.3487 17.788 40.0407 17.58 39.4247 17.58H38.1047ZM39.8087 22.02C40.4327 22.02 40.7447 21.8 40.7447 21.36C40.7447 20.92 40.4327 20.7 39.8087 20.7H38.1047V22.02H39.8087ZM50.326 22.536H47.134L46.57 24H43.69L47.362 15.6H50.146L53.818 24H50.89L50.326 22.536ZM49.546 20.496L48.73 18.384L47.914 20.496H49.546ZM58.4968 24.192C57.6088 24.192 56.8088 24.008 56.0968 23.64C55.3848 23.264 54.8248 22.744 54.4168 22.08C54.0168 21.408 53.8168 20.648 53.8168 19.8C53.8168 18.952 54.0168 18.196 54.4168 17.532C54.8248 16.86 55.3848 16.34 56.0968 15.972C56.8088 15.596 57.6088 15.408 58.4968 15.408C59.3128 15.408 60.0408 15.552 60.6808 15.84C61.3208 16.128 61.8488 16.544 62.2648 17.088L60.4768 18.684C59.9568 18.028 59.3448 17.7 58.6408 17.7C58.0488 17.7 57.5728 17.892 57.2128 18.276C56.8528 18.652 56.6728 19.16 56.6728 19.8C56.6728 20.44 56.8528 20.952 57.2128 21.336C57.5728 21.712 58.0488 21.9 58.6408 21.9C59.3448 21.9 59.9568 21.572 60.4768 20.916L62.2648 22.512C61.8488 23.056 61.3208 23.472 60.6808 23.76C60.0408 24.048 59.3128 24.192 58.4968 24.192ZM66.5024 21.216L65.8664 21.924V24H63.0824V15.6H65.8664V18.648L68.6264 15.6H71.7104L68.3504 19.296L71.8784 24H68.6024L66.5024 21.216Z" fill="white"/>
<defs>
<filter id="filter0_d_278_2505" x="0" y="0" width="116" height="45" filterUnits="userSpaceOnUse" color-interpolation-filters="sRGB">
<feFlood flood-opacity="0" result="BackgroundImageFix"/>
<feColorMatrix in="SourceAlpha" type="matrix" values="0 0 0 0 0 0 0 0 0 0 0 0 0 0 0 0 0 0 127 0" result="hardAlpha"/>
<feOffset dy="3"/>
<feGaussianBlur stdDeviation="4"/>
<feColorMatrix type="matrix" values="0 0 0 0 0.883333 0 0 0 0 0.415377 0 0 0 0 0 0 0 0 0.19 0"/>
<feBlend mode="normal" in2="BackgroundImageFix" result="effect1_dropShadow_278_2505"/>
<feBlend mode="normal" in="SourceGraphic" in2="effect1_dropShadow_278_2505" result="shape"/>
</filter>
</defs>
</svg>
