<svg width="178" height="43" viewBox="0 0 178 43" fill="none" xmlns="http://www.w3.org/2000/svg">
<path d="M48.3043 9.20928H51.6083V16.4473H56.0323V19.0093H48.3043V9.20928ZM56.945 9.20928H60.249V19.0093H56.945V9.20928ZM69.6795 13.8853C70.2582 14.0999 70.7062 14.4126 71.0235 14.8233C71.3408 15.2339 71.4995 15.7286 71.4995 16.3073C71.4995 17.1659 71.1448 17.8333 70.4355 18.3093C69.7262 18.7759 68.6995 19.0093 67.3555 19.0093H61.8395V9.20928H67.0755C68.3822 9.20928 69.3668 9.44261 70.0295 9.90928C70.7015 10.3759 71.0375 10.9966 71.0375 11.7713C71.0375 12.2286 70.9208 12.6393 70.6875 13.0033C70.4635 13.3673 70.1275 13.6613 69.6795 13.8853ZM65.0875 11.5193V12.9753H66.6275C67.3462 12.9753 67.7055 12.7326 67.7055 12.2473C67.7055 11.7619 67.3462 11.5193 66.6275 11.5193H65.0875ZM67.0755 16.6993C67.8035 16.6993 68.1675 16.4426 68.1675 15.9293C68.1675 15.4159 67.8035 15.1593 67.0755 15.1593H65.0875V16.6993H67.0755ZM76.8676 16.5453H75.9716V19.0093H72.6676V9.20928H77.3856C78.291 9.20928 79.0796 9.35861 79.7516 9.65728C80.4236 9.95594 80.9416 10.3853 81.3056 10.9453C81.6696 11.5053 81.8516 12.1586 81.8516 12.9053C81.8516 13.6053 81.693 14.2166 81.3756 14.7393C81.0583 15.2619 80.601 15.6773 80.0036 15.9853L82.0616 19.0093H78.5336L76.8676 16.5453ZM78.5196 12.9053C78.5196 12.5413 78.4076 12.2613 78.1836 12.0653C77.9596 11.8599 77.6236 11.7573 77.1756 11.7573H75.9716V14.0533H77.1756C77.6236 14.0533 77.9596 13.9553 78.1836 13.7593C78.4076 13.5539 78.5196 13.2693 78.5196 12.9053ZM89.7773 17.3013H86.0533L85.3953 19.0093H82.0353L86.3193 9.20928H89.5673L93.8513 19.0093H90.4353L89.7773 17.3013ZM88.8673 14.9213L87.9153 12.4573L86.9633 14.9213H88.8673ZM98.5786 16.5453H97.6826V19.0093H94.3786V9.20928H99.0966C100.002 9.20928 100.791 9.35861 101.463 9.65728C102.135 9.95594 102.653 10.3853 103.017 10.9453C103.381 11.5053 103.563 12.1586 103.563 12.9053C103.563 13.6053 103.404 14.2166 103.087 14.7393C102.769 15.2619 102.312 15.6773 101.715 15.9853L103.773 19.0093H100.245L98.5786 16.5453ZM100.231 12.9053C100.231 12.5413 100.119 12.2613 99.8946 12.0653C99.6706 11.8599 99.3346 11.7573 98.8866 11.7573H97.6826V14.0533H98.8866C99.3346 14.0533 99.6706 13.9553 99.8946 13.7593C100.119 13.5539 100.231 13.2693 100.231 12.9053ZM110.497 15.4533V19.0093H107.193V15.4113L103.497 9.20928H106.983L108.985 12.5973L111.001 9.20928H114.193L110.497 15.4533Z" fill="white"/>
<path d="M57.6949 30.5778H52.6249L51.5329 33.0088H50.5319L54.6919 23.9088H55.6409L59.8009 33.0088H58.7869L57.6949 30.5778ZM57.3439 29.7978L55.1599 24.9098L52.9759 29.7978H57.3439ZM67.2877 23.3628V33.0088H66.4037V31.6568C66.1264 32.1161 65.7581 32.4671 65.2987 32.7098C64.8481 32.9525 64.3367 33.0738 63.7647 33.0738C63.1234 33.0738 62.5427 32.9265 62.0227 32.6318C61.5027 32.3371 61.0954 31.9255 60.8007 31.3968C60.5061 30.8681 60.3587 30.2658 60.3587 29.5898C60.3587 28.9138 60.5061 28.3115 60.8007 27.7828C61.0954 27.2541 61.5027 26.8468 62.0227 26.5608C62.5427 26.2661 63.1234 26.1188 63.7647 26.1188C64.3194 26.1188 64.8177 26.2358 65.2597 26.4698C65.7104 26.6951 66.0787 27.0288 66.3647 27.4708V23.3628H67.2877ZM63.8427 32.2548C64.3194 32.2548 64.7484 32.1465 65.1297 31.9298C65.5197 31.7045 65.8231 31.3881 66.0397 30.9808C66.2651 30.5735 66.3777 30.1098 66.3777 29.5898C66.3777 29.0698 66.2651 28.6061 66.0397 28.1988C65.8231 27.7915 65.5197 27.4795 65.1297 27.2628C64.7484 27.0375 64.3194 26.9248 63.8427 26.9248C63.3574 26.9248 62.9197 27.0375 62.5297 27.2628C62.1484 27.4795 61.8451 27.7915 61.6197 28.1988C61.4031 28.6061 61.2947 29.0698 61.2947 29.5898C61.2947 30.1098 61.4031 30.5735 61.6197 30.9808C61.8451 31.3881 62.1484 31.7045 62.5297 31.9298C62.9197 32.1465 63.3574 32.2548 63.8427 32.2548ZM78.3863 26.1188C79.2443 26.1188 79.916 26.3658 80.4013 26.8598C80.8953 27.3538 81.1423 28.0818 81.1423 29.0438V33.0088H80.2193V29.1348C80.2193 28.4241 80.046 27.8825 79.6993 27.5098C79.3613 27.1371 78.8803 26.9508 78.2563 26.9508C77.5456 26.9508 76.9866 27.1718 76.5793 27.6138C76.172 28.0471 75.9683 28.6495 75.9683 29.4208V33.0088H75.0453V29.1348C75.0453 28.4241 74.872 27.8825 74.5253 27.5098C74.1873 27.1371 73.702 26.9508 73.0693 26.9508C72.3673 26.9508 71.8083 27.1718 71.3923 27.6138C70.985 28.0471 70.7813 28.6495 70.7813 29.4208V33.0088H69.8583V26.1708H70.7423V27.4188C70.985 27.0028 71.323 26.6821 71.7563 26.4568C72.1896 26.2315 72.688 26.1188 73.2513 26.1188C73.8233 26.1188 74.3173 26.2401 74.7333 26.4828C75.158 26.7255 75.4743 27.0851 75.6823 27.5618C75.9336 27.1111 76.2933 26.7601 76.7613 26.5088C77.238 26.2488 77.7796 26.1188 78.3863 26.1188ZM83.6454 26.1708H84.5684V33.0088H83.6454V26.1708ZM84.1134 24.6758C83.9227 24.6758 83.7624 24.6108 83.6324 24.4808C83.5024 24.3508 83.4374 24.1948 83.4374 24.0128C83.4374 23.8395 83.5024 23.6878 83.6324 23.5578C83.7624 23.4278 83.9227 23.3628 84.1134 23.3628C84.3041 23.3628 84.4644 23.4278 84.5944 23.5578C84.7244 23.6791 84.7894 23.8265 84.7894 23.9998C84.7894 24.1905 84.7244 24.3508 84.5944 24.4808C84.4644 24.6108 84.3041 24.6758 84.1134 24.6758ZM90.6206 26.1188C91.4786 26.1188 92.1589 26.3701 92.6616 26.8728C93.1729 27.3668 93.4286 28.0905 93.4286 29.0438V33.0088H92.5056V29.1348C92.5056 28.4241 92.3279 27.8825 91.9726 27.5098C91.6173 27.1371 91.1103 26.9508 90.4516 26.9508C89.7149 26.9508 89.1299 27.1718 88.6966 27.6138C88.2719 28.0471 88.0596 28.6495 88.0596 29.4208V33.0088H87.1366V26.1708H88.0206V27.4318C88.2719 27.0158 88.6186 26.6951 89.0606 26.4698C89.5113 26.2358 90.0313 26.1188 90.6206 26.1188ZM102.938 23.9088C104.099 23.9088 105.009 24.1861 105.668 24.7408C106.326 25.2955 106.656 26.0581 106.656 27.0288C106.656 27.9995 106.326 28.7621 105.668 29.3168C105.009 29.8628 104.099 30.1358 102.938 30.1358H100.494V33.0088H99.5318V23.9088H102.938ZM102.912 29.2908C103.813 29.2908 104.502 29.0958 104.979 28.7058C105.455 28.3071 105.694 27.7481 105.694 27.0288C105.694 26.2921 105.455 25.7288 104.979 25.3388C104.502 24.9401 103.813 24.7408 102.912 24.7408H100.494V29.2908H102.912ZM110.869 26.1188C111.762 26.1188 112.447 26.3441 112.923 26.7948C113.4 27.2368 113.638 27.8955 113.638 28.7708V33.0088H112.754V31.9428C112.546 32.2981 112.239 32.5755 111.831 32.7748C111.433 32.9741 110.956 33.0738 110.401 33.0738C109.639 33.0738 109.032 32.8918 108.581 32.5278C108.131 32.1638 107.905 31.6828 107.905 31.0848C107.905 30.5041 108.113 30.0361 108.529 29.6808C108.954 29.3255 109.626 29.1478 110.544 29.1478H112.715V28.7318C112.715 28.1425 112.551 27.6961 112.221 27.3928C111.892 27.0808 111.411 26.9248 110.778 26.9248C110.345 26.9248 109.929 26.9985 109.53 27.1458C109.132 27.2845 108.789 27.4795 108.503 27.7308L108.087 27.0418C108.434 26.7471 108.85 26.5218 109.335 26.3658C109.821 26.2011 110.332 26.1188 110.869 26.1188ZM110.544 32.3458C111.064 32.3458 111.511 32.2288 111.883 31.9948C112.256 31.7521 112.533 31.4055 112.715 30.9548V29.8368H110.57C109.4 29.8368 108.815 30.2441 108.815 31.0588C108.815 31.4575 108.967 31.7738 109.27 32.0078C109.574 32.2331 109.998 32.3458 110.544 32.3458ZM119.629 26.1188C120.487 26.1188 121.168 26.3701 121.67 26.8728C122.182 27.3668 122.437 28.0905 122.437 29.0438V33.0088H121.514V29.1348C121.514 28.4241 121.337 27.8825 120.981 27.5098C120.626 27.1371 120.119 26.9508 119.46 26.9508C118.724 26.9508 118.139 27.1718 117.705 27.6138C117.281 28.0471 117.068 28.6495 117.068 29.4208V33.0088H116.145V26.1708H117.029V27.4318C117.281 27.0158 117.627 26.6951 118.069 26.4698C118.52 26.2358 119.04 26.1188 119.629 26.1188ZM130.923 29.8758H125.203C125.255 30.5865 125.528 31.1628 126.022 31.6048C126.516 32.0381 127.14 32.2548 127.894 32.2548C128.318 32.2548 128.708 32.1811 129.064 32.0338C129.419 31.8778 129.727 31.6525 129.987 31.3578L130.507 31.9558C130.203 32.3198 129.822 32.5971 129.363 32.7878C128.912 32.9785 128.414 33.0738 127.868 33.0738C127.166 33.0738 126.542 32.9265 125.996 32.6318C125.458 32.3285 125.038 31.9125 124.735 31.3838C124.431 30.8551 124.28 30.2571 124.28 29.5898C124.28 28.9225 124.423 28.3245 124.709 27.7958C125.003 27.2671 125.402 26.8555 125.905 26.5608C126.416 26.2661 126.988 26.1188 127.621 26.1188C128.253 26.1188 128.821 26.2661 129.324 26.5608C129.826 26.8555 130.221 27.2671 130.507 27.7958C130.793 28.3158 130.936 28.9138 130.936 29.5898L130.923 29.8758ZM127.621 26.9118C126.962 26.9118 126.407 27.1241 125.957 27.5488C125.515 27.9648 125.263 28.5108 125.203 29.1868H130.052C129.991 28.5108 129.735 27.9648 129.285 27.5488C128.843 27.1241 128.288 26.9118 127.621 26.9118ZM132.814 23.3628H133.737V33.0088H132.814V23.3628Z" fill="white"/>
<line x1="48.5063" y1="21.5088" x2="175.506" y2="21.5088" stroke="white" stroke-opacity="0.59"/>
<g clip-path="url(#clip0_299_3924)">
<path d="M39.5095 15.5205C39.3397 14.2437 39.3158 12.0447 40.5016 11.3063C40.5228 11.2928 40.5386 11.2732 40.5572 11.2564C41.5267 10.9463 42.1976 10.5111 41.671 9.92552L27.3691 5.61621L4.21107 8.83591C4.21107 8.83591 1.55919 9.21495 1.79609 13.335C1.92469 15.5774 2.62799 16.6787 3.24305 17.2206L1.34272 17.7933C0.815278 18.3789 1.48611 18.8143 2.45577 19.1239C2.47419 19.1412 2.48974 19.1606 2.51129 19.1741C3.69641 19.9131 3.6736 22.1119 3.50313 23.3889C-0.754392 24.5979 0.773915 24.9918 0.773915 24.9918L1.70785 25.2178C1.05092 25.8114 0.398513 26.9372 0.520722 29.0721C0.757746 33.1914 2.93596 33.4757 2.93596 33.4757L18.0904 38.4015L40.9643 32.861C40.9643 32.861 42.4931 32.4664 38.2344 31.2574C38.0632 29.9824 38.0394 27.7838 39.2273 27.0429C39.2491 27.0298 39.265 27.0098 39.2827 26.9933C40.2523 26.6832 40.9227 26.2484 40.3958 25.6628L39.4016 25.3626C40.0647 24.9627 41.0607 23.9178 41.2167 21.2033C41.3244 19.3362 40.8373 18.2427 40.2735 17.5989L42.2386 17.1234C42.2388 17.1241 43.7676 16.7295 39.5095 15.5205ZM20.3769 15.4677L24.2235 14.6772L37.2225 12.0058L39.1592 11.6075C38.5404 12.7401 38.5663 14.2901 38.6687 15.2863C38.6912 15.5117 38.717 15.7175 38.7421 15.874L36.6223 16.401L20.2152 20.4826L20.3769 15.4677ZM3.85384 19.4766L5.79027 19.8749L18.2741 22.4412L19.3647 22.6646L22.6352 23.3368L22.7966 28.3518L5.93366 24.1564L4.27124 23.7433C4.29568 23.5866 4.3215 23.381 4.34494 23.155C4.44672 22.1596 4.47316 20.6092 3.85384 19.4766ZM3.10153 13.1367C3.0781 12.0408 3.27338 11.2483 3.66808 10.8454C3.91927 10.5882 4.21571 10.5347 4.41901 10.5347C4.52643 10.5347 4.60377 10.5496 4.60903 10.5496L14.5872 13.8026L19.5655 15.4257L19.4021 20.4757L5.43617 16.5602L4.69916 16.3538C4.67208 16.3461 4.63536 16.3409 4.60703 16.3396C4.5495 16.3355 3.16872 16.2084 3.10153 13.1367ZM18.1265 36.2136L3.42392 32.0915C3.39672 32.0836 3.36037 32.0784 3.33204 32.077C3.2735 32.0731 1.8921 31.9461 1.82529 28.8752C1.80148 27.778 1.99776 26.9862 2.39172 26.5829C2.64353 26.3257 2.94009 26.2722 3.14302 26.2722C3.25069 26.2722 3.32778 26.2866 3.33342 26.2866C3.33342 26.2866 3.33405 26.2866 3.33342 26.2866L18.2888 31.1635L18.1265 36.2136ZM37.3924 31.0235C37.4156 31.2496 37.4414 31.455 37.4664 31.6117L18.9392 36.2207L19.1012 31.2057L23.0622 30.3914L23.6471 30.5329L25.8396 29.8203L35.9462 27.7435L37.8836 27.3449C37.2641 28.4774 37.2898 30.028 37.3924 31.0235ZM38.4129 24.2079C38.3792 24.2087 38.3455 24.2132 38.3138 24.2232L36.9164 24.6144L23.6115 28.3451L23.4488 23.2952L27.814 21.8714L38.3838 18.4243C38.3852 18.4237 38.9399 18.3005 39.347 18.7145C39.741 19.1173 39.9366 19.9099 39.9135 21.0058C39.8446 24.0764 38.4632 24.204 38.4129 24.2079Z" fill="white"/>
</g>
<defs>
<clipPath id="clip0_299_3924">
<rect width="41.9999" height="42" fill="white" transform="translate(0.505859 0.616211)"/>
</clipPath>
</defs>
</svg>
