<svg width="41" height="39" viewBox="0 0 41 39" fill="none" xmlns="http://www.w3.org/2000/svg">
<path d="M38.3176 11.2212C38.2341 10.3499 38.2223 8.84912 38.8056 8.34519C38.816 8.33595 38.8238 8.3226 38.8329 8.31114C39.3098 8.09951 39.6398 7.80251 39.3808 7.40286L32.3461 4.46191L20.9553 6.65924C20.9553 6.65924 19.6509 6.91792 19.7674 9.72969C19.8307 11.26 20.1766 12.0116 20.4792 12.3815L19.5444 12.7723C19.285 13.172 19.615 13.4691 20.0919 13.6804C20.101 13.6922 20.1086 13.7054 20.1192 13.7147C20.7022 14.219 20.6909 15.7196 20.6071 16.5911C18.5129 17.4162 19.2647 17.685 19.2647 17.685L19.724 17.8393C19.4009 18.2444 19.08 19.0126 19.1401 20.4697C19.2567 23.2809 20.3281 23.475 20.3281 23.475L27.7822 26.8366L39.0332 23.0555C39.0332 23.0555 39.7851 22.7862 37.6904 21.961C37.6062 21.0909 37.5945 19.5905 38.1788 19.0848C38.1895 19.0759 38.1973 19.0623 38.206 19.051C38.683 18.8393 39.0127 18.5426 38.7536 18.1429L38.2645 17.9381C38.5907 17.6652 39.0806 16.952 39.1573 15.0995C39.2103 13.8253 38.9707 13.079 38.6934 12.6397L39.66 12.3151C39.6601 12.3156 40.412 12.0463 38.3176 11.2212ZM28.9068 11.1852L30.7988 10.6457L37.1927 8.8226L38.1453 8.55075C37.8409 9.32371 37.8537 10.3815 37.9041 11.0614C37.9151 11.2152 37.9278 11.3557 37.9401 11.4624L36.8975 11.8221L28.8273 14.6076L28.9068 11.1852ZM20.7796 13.9211L21.7321 14.1929L27.8725 15.9443L28.4089 16.0968L30.0176 16.5555L30.097 19.9781L21.8026 17.1149L20.9849 16.8329C20.9969 16.726 21.0096 16.5857 21.0211 16.4315C21.0712 15.7521 21.0842 14.694 20.7796 13.9211ZM20.4096 9.59436C20.398 8.84647 20.4941 8.30558 20.6882 8.03065C20.8118 7.85512 20.9576 7.81859 21.0576 7.81859C21.1104 7.81859 21.1485 7.82877 21.151 7.82877L26.059 10.0488L28.5077 11.1565L28.4274 14.6029L21.5579 11.9308L21.1954 11.7899C21.1821 11.7847 21.164 11.7811 21.1501 11.7802C21.1218 11.7774 20.4426 11.6907 20.4096 9.59436ZM27.7999 25.3435L20.5681 22.5303C20.5547 22.5249 20.5369 22.5213 20.5229 22.5204C20.4941 22.5177 19.8147 22.4311 19.7818 20.3353C19.7701 19.5865 19.8666 19.0461 20.0604 18.7709C20.1843 18.5954 20.3301 18.5588 20.43 18.5588C20.4829 18.5588 20.5208 18.5687 20.5236 18.5687C20.5236 18.5687 20.5239 18.5687 20.5236 18.5687L27.8798 21.897L27.7999 25.3435ZM37.2763 21.8014C37.2877 21.9557 37.3004 22.0959 37.3127 22.2029L28.1997 25.3483L28.2793 21.9258L30.2276 21.37L30.5154 21.4666L31.5938 20.9803L36.5649 19.5629L37.5179 19.2909C37.2132 20.0638 37.2258 21.122 37.2763 21.8014ZM37.7782 17.15C37.7616 17.1506 37.7451 17.1536 37.7295 17.1605L37.0422 17.4275L30.4978 19.9735L30.4178 16.5271L32.5649 15.5555L37.7639 13.203C37.7646 13.2025 38.0374 13.1184 38.2377 13.401C38.4315 13.6759 38.5277 14.2168 38.5163 14.9647C38.4824 17.0603 37.8029 17.1474 37.7782 17.15Z" fill="white"/>
</svg>
