<svg width="71" height="61" viewBox="0 0 71 61" fill="none" xmlns="http://www.w3.org/2000/svg">
<path d="M67.0994 17.6048C66.9683 16.2377 66.9498 13.8832 67.865 13.0925C67.8813 13.078 67.8935 13.0571 67.9078 13.0391C68.656 12.7071 69.1738 12.2411 68.7673 11.6141L57.7305 7L39.8593 10.4474C39.8593 10.4474 37.8129 10.8533 37.9957 15.2647C38.0949 17.6657 38.6377 18.8448 39.1123 19.4252L37.6458 20.0384C37.2388 20.6654 37.7565 21.1315 38.5048 21.463C38.519 21.4815 38.531 21.5023 38.5476 21.5168C39.4622 22.3081 39.4446 24.6624 39.313 26.0297C36.0275 27.3241 37.2069 27.746 37.2069 27.746L37.9276 27.9879C37.4206 28.6236 36.9172 29.8289 37.0115 32.1149C37.1944 36.5255 38.8753 36.8299 38.8753 36.8299L50.5701 42.104L68.222 36.1717C68.222 36.1717 69.4018 35.7492 66.1154 34.4546C65.9832 33.0895 65.9648 30.7355 66.8815 29.9422C66.8984 29.9281 66.9107 29.9067 66.9243 29.889C67.6726 29.557 68.1899 29.0914 67.7833 28.4644L67.0161 28.143C67.5278 27.7148 68.2964 26.5959 68.4168 23.6895C68.4999 21.6903 68.124 20.5195 67.6889 19.8302L69.2054 19.321C69.2055 19.3218 70.3853 18.8993 67.0994 17.6048ZM52.3346 17.5483L55.303 16.7018L65.3345 13.8416L66.829 13.415C66.3515 14.6277 66.3715 16.2874 66.4505 17.3541C66.4678 17.5954 66.4878 17.8157 66.5071 17.9832L64.8712 18.5476L52.2098 22.9178L52.3346 17.5483ZM39.5837 21.8407L41.078 22.2672L50.7118 25.015L51.5535 25.2541L54.0774 25.9739L54.2019 31.3436L41.1887 26.8515L39.9058 26.4091C39.9246 26.2414 39.9446 26.0212 39.9626 25.7793C40.0412 24.7134 40.0616 23.0534 39.5837 21.8407ZM39.0031 15.0524C38.985 13.879 39.1357 13.0304 39.4403 12.599C39.6342 12.3237 39.8629 12.2663 40.0198 12.2663C40.1027 12.2663 40.1624 12.2823 40.1664 12.2823L47.8667 15.7654L51.7084 17.5033L51.5824 22.9104L40.8048 18.718L40.236 18.497C40.2151 18.4888 40.1868 18.4832 40.1649 18.4818C40.1205 18.4774 39.0549 18.3413 39.0031 15.0524ZM50.598 39.7614L39.2519 35.3478C39.2309 35.3394 39.2028 35.3337 39.181 35.3322C39.1358 35.3281 38.0698 35.1921 38.0182 31.904C37.9998 30.7292 38.1513 29.8814 38.4553 29.4496C38.6497 29.1742 38.8785 29.1169 39.0351 29.1169C39.1182 29.1169 39.1777 29.1323 39.182 29.1323C39.182 29.1323 39.1825 29.1323 39.182 29.1323L50.7232 34.3541L50.598 39.7614ZM65.4655 34.2042C65.4834 34.4463 65.5034 34.6663 65.5227 34.8341L51.2252 39.769L51.3501 34.3994L54.4068 33.5274L54.8583 33.6789L56.5502 32.9159L64.3495 30.6922L65.8446 30.2655C65.3666 31.478 65.3864 33.1383 65.4655 34.2042ZM66.2531 26.9066C66.2271 26.9074 66.2011 26.9123 66.1766 26.923L65.0983 27.3419L54.8308 31.3364L54.7052 25.9293L58.0739 24.4048L66.2307 20.714C66.2317 20.7133 66.6597 20.5814 66.9739 21.0247C67.278 21.456 67.4289 22.3046 67.4111 23.478C67.3579 26.7658 66.2919 26.9025 66.2531 26.9066Z" fill="white"/>
</svg>
